<mxfile host="app.diagrams.net" modified="2021-12-20T01:08:23.502Z" agent="5.0 (Macintosh; Intel Mac OS X 10_15_7) AppleWebKit/537.36 (KHTML, like Gecko) Chrome/96.0.4664.110 Safari/537.36" etag="96To_Kv00OPX4cqy4LB6" version="16.0.0" type="github">
  <diagram id="-50MVAtP38mJDLCLxDI0" name="Page-1">
    <mxGraphModel dx="1134" dy="550" grid="1" gridSize="10" guides="1" tooltips="1" connect="1" arrows="1" fold="1" page="1" pageScale="1" pageWidth="827" pageHeight="1169" math="0" shadow="0">
      <root>
        <mxCell id="0" />
        <mxCell id="1" parent="0" />
        <mxCell id="Kg5q8fjMB3Q2rien57C7-1" value="클러스터&lt;br&gt;구성&amp;nbsp;도구" style="whiteSpace=wrap;html=1;aspect=fixed;" vertex="1" parent="1">
          <mxGeometry x="80" y="80" width="80" height="80" as="geometry" />
        </mxCell>
        <mxCell id="Kg5q8fjMB3Q2rien57C7-2" value="클러스터&lt;br&gt;구성&amp;nbsp;도구" style="whiteSpace=wrap;html=1;aspect=fixed;" vertex="1" parent="1">
          <mxGeometry x="160" y="80" width="80" height="80" as="geometry" />
        </mxCell>
      </root>
    </mxGraphModel>
  </diagram>
</mxfile>
